<?xml version="1.0" encoding="utf-8"?>
<!-- Generator: Adobe Illustrator 19.2.0, SVG Export Plug-In . SVG Version: 6.00 Build 0)  -->
<svg version="1.1" id="Layer_1" xmlns="http://www.w3.org/2000/svg" xmlns:xlink="http://www.w3.org/1999/xlink" x="0px" y="0px"
	 viewBox="0 0 813.6 813.6" style="enable-background:new 0 0 813.6 813.6;" xml:space="preserve">
<style type="text/css">
	.st0{opacity:0.75;fill:#40F7FF;}
	.st1{opacity:0.5;fill:#FFFFFF;stroke:#000000;stroke-width:20;stroke-miterlimit:10;}
	.st2{opacity:0.5;fill:#FFFFFF;stroke:#000000;stroke-width:15;stroke-miterlimit:10;}
	.st3{opacity:0.75;fill:#BBC4EF;}
	.st4{opacity:0.75;fill:#6534FF;}
	.st5{opacity:0.75;fill:#FCCDD3;}
</style>
<path class="st0" d="M406.9,449c-25.3,0-45.9-20.6-45.9-45.9c0-25.3,20.6-45.9,45.9-45.9c25.3,0,45.9,20.6,45.9,45.9
	C452.8,428.4,432.2,449,406.9,449z M406.9,373.7c-16.2,0-29.4,13.2-29.4,29.4c0,16.2,13.2,29.4,29.4,29.4
	c16.2,0,29.4-13.2,29.4-29.4C436.2,386.8,423.1,373.7,406.9,373.7z"/>
<circle class="st1" cx="1941.9" cy="1349.8" r="250"/>
<circle class="st2" cx="1941.9" cy="1349.8" r="212.5"/>
<circle class="st2" cx="1941.9" cy="1349.8" r="175"/>
<circle class="st2" cx="1941.9" cy="1349.8" r="137.5"/>
<circle class="st2" cx="1941.9" cy="1349.8" r="100"/>
<circle class="st2" cx="1941.9" cy="1349.8" r="62.5"/>
<path class="st3" d="M225.7,230.8c45.6-47.9,110-77.9,181.2-77.9C544.8,152.9,657,265.1,657,403c0,32.8-6.4,64.2-17.9,92.9
	l46.1,18.5c13.8-34.4,21.5-72,21.5-111.4c0-165.3-134.5-299.8-299.8-299.8c-85.4,0-162.5,35.9-217.2,93.3L225.7,230.8z"/>
<circle class="st2" cx="1941.9" cy="1349.8" r="25"/>
<path class="st0" d="M562.2,639.3c-44.6,29.5-98,46.8-155.4,46.8c-155.6,0-282.2-126.6-282.2-282.2c0-140.1,102.6-256.6,236.6-278.5
	l-10.8-66.9c-72,11.6-138.4,45.4-191,98c-66.1,66.1-102.5,154-102.5,247.4s36.4,181.3,102.5,247.4c66.1,66.1,154,102.5,247.4,102.5
	c69.7,0,136.2-20.2,192.9-57.9L562.2,639.3z"/>
<path class="st4" d="M666.8,168.6c58.3,64.4,90.1,147,90.1,234.5c0,93.5-36.4,181.4-102.5,247.5s-154,102.5-247.5,102.5
	c-93.5,0-181.4-36.4-247.5-102.5S56.9,496.5,56.9,403c0-19.7,1.6-39,4.8-58.1l-52-8.8C6,358.1,4.2,380.4,4.2,403
	c0,107.6,41.9,208.7,118,284.8c76.1,76.1,177.2,118,284.8,118c107.6,0,208.7-41.9,284.8-118c76.1-76.1,118-177.2,118-284.8
	c0-100.6-36.7-195.6-103.7-269.7L666.8,168.6z"/>
<path class="st5" d="M650.9,219.3c38.6,51.2,61.5,114.8,61.5,183.7c0,168.5-137.1,305.6-305.6,305.6c-71.5,0-137.3-24.7-189.4-65.9
	l-17.8,22.6c58.8,46.6,131,71.9,207.2,71.9c89.3,0,173.2-34.8,236.3-97.9s97.9-147.1,97.9-236.3c0-73.5-23.6-143.4-67.2-201
	L650.9,219.3z"/>
<path class="st4" d="M663,384.7c0.4,6,0.7,12.1,0.7,18.3c0,141.6-115.2,256.8-256.8,256.8S150.1,544.6,150.1,403
	c0-105.8,64.4-196.9,156-236.2l-4.7-11.1C205.4,196.9,138,292.2,138,403c0,148.2,120.6,268.8,268.8,268.8S675.7,551.3,675.7,403
	c0-6.4-0.2-12.8-0.7-19.2L663,384.7z"/>
<path class="st5" d="M235,303.4c34.5-59.2,98.6-99.1,171.9-99.1c109.6,0,198.7,89.1,198.7,198.7c0,74.6-41.4,139.8-102.4,173.7
	l8,14.5c66.1-36.8,110.9-107.4,110.9-188.2c0-118.7-96.6-215.3-215.3-215.3c-79.4,0-148.9,43.2-186.2,107.3L235,303.4z"/>
<path class="st0" d="M482.5,190.3l-11.1,31.2C546,248.1,599.6,319.4,599.6,403c0,106.2-86.4,192.7-192.7,192.7
	c-43.2,0-83.2-14.3-115.3-38.4l-19.8,26.5c37.7,28.3,84.5,45,135.2,45c124.5,0,225.8-101.3,225.8-225.8
	C632.7,305,569.9,221.4,482.5,190.3z"/>
<path class="st4" d="M522.4,459.7c-21,42.6-64.9,72.1-115.5,72.1c-71,0-128.7-57.7-128.7-128.7c0-69.8,55.9-126.8,125.3-128.6
	l-1.2-43.7c-92.9,2.5-167.7,78.8-167.7,172.3c0,95,77.3,172.4,172.4,172.4c67.8,0,126.6-39.4,154.7-96.5L522.4,459.7z"/>
<path class="st0" d="M413.4,523.6c-2.2,0.1-4.3,0.2-6.5,0.2c-66.6,0-120.7-54.2-120.7-120.7c0-66.6,54.2-120.7,120.7-120.7
	c17.9,0,34.9,3.9,50.2,11l11.9-26c-18.9-8.7-39.9-13.5-62.1-13.5c-82.3,0-149.3,67-149.3,149.3s67,149.3,149.3,149.3
	c2.7,0,5.4-0.1,8.1-0.2L413.4,523.6z"/>
<path class="st3" d="M465.4,564c-18.3,6.7-38,10.3-58.5,10.3c-94.5,0-171.3-76.8-171.3-171.3c0-43.4,16.3-83.2,43-113.4l-25.9-22.9
	C220.5,303.1,201,350.8,201,403C201,516.6,293.3,609,406.9,609c24.7,0,48.4-4.4,70.3-12.4L465.4,564z"/>
<path class="st3" d="M406.9,294.6c-28.9,0-55.2,11.4-74.7,29.9l19.7,20.7c14.3-13.6,33.7-22,55-22c44,0,79.8,35.8,79.8,79.8
	c0,42.2-33,76.9-74.5,79.6l1.9,28.5c56.4-3.7,101.2-50.8,101.2-108.1C515.3,343.3,466.6,294.6,406.9,294.6z"/>
<path class="st5" d="M436.2,323.1l-5.2,14.1c26.8,9.8,45.9,35.6,45.9,65.8c0,38.6-31.4,70.1-70.1,70.1c-32,0-59-21.5-67.4-50.9
	l-14.5,4.2c10.2,35.6,43,61.8,81.8,61.8c46.9,0,85.1-38.2,85.1-85.1C492,366.4,468.7,335.1,436.2,323.1z"/>
<path class="st4" d="M403.2,469.5c-35.1-1.9-63-31-63-66.6c0-36.8,29.9-66.7,66.7-66.7c16.9,0,32.4,6.3,44.1,16.8l6-6.8
	c-13.4-11.8-30.9-19-50.1-19c-41.7,0-75.7,34-75.7,75.7c0,40.4,31.7,73.4,71.6,75.6L403.2,469.5z"/>
</svg>
